<?xml version="1.0" standalone="no"?>
<svg xmlns="http://www.w3.org/2000/svg" viewBox="0 0 104.059 120.156" width="104.059" height="120.156"><polygon fill="#33a52b" points="104.059,30.039 104.059,90.117 52.0295,120.156 0,90.117 0,30.039 52.0295,0"></polygon><g fill="white" color="white" transform="translate(30.0295 22.5) scale(0.7333334)"><svg width="60.0" height="60.0" x="0.0" y="0.0" viewBox="0 0 60 60"><g><path d="M28,59C14.467,59,2.431,51.546,0.09,46.415C0.031,46.285,0,46.143,0,46v-7c0-0.286,0.123-0.559,0.337-0.749   s0.498-0.276,0.784-0.244l1.19,0.146c4.39,0.541,9.854,1.215,15.319,1.215c6.745,0,11.91-1.016,15.792-3.104   C43.002,31.109,43.991,13.132,44,12.951C44.027,12.418,44.467,12,45,12h8c0.275,0,0.539,0.113,0.729,0.314   C59.35,18.273,60,28.115,60,35C60,50.756,43.902,59,28,59z M2,45.771C4.018,49.695,14.7,57,28,57c14.908,0,30-7.557,30-22   c0-3.706,0-14.856-5.439-21h-6.629c-0.34,3.981-2.229,19.005-11.561,24.025c-4.181,2.248-9.656,3.342-16.74,3.342   c-5.588,0-11.119-0.682-15.563-1.229L2,40.13V45.771z"></path><path d="M46.234,14.029c-0.433,0-0.832-0.283-0.959-0.72L43.04,5.665C43.014,5.574,43,5.48,43,5.385V2c0-0.552,0.448-1,1-1h9   c0.552,0,1,0.448,1,1v11c0,0.552-0.448,1-1,1s-1-0.448-1-1V3h-7v2.242l2.195,7.506c0.156,0.53-0.148,1.085-0.678,1.241   C46.423,14.016,46.328,14.029,46.234,14.029z"></path><path d="M20.742,47.729c-6.07,0-11.714-0.822-15.017-1.767c-0.531-0.151-0.838-0.705-0.687-1.235   c0.151-0.531,0.705-0.838,1.236-0.688c6.364,1.818,22.859,3.222,32.148-1.775C47.99,37.117,48.991,19.133,49,18.951   c0.027-0.551,0.496-0.986,1.048-0.949c0.552,0.027,0.978,0.496,0.95,1.047c-0.038,0.785-1.063,19.293-11.628,24.977   C34.244,46.782,27.248,47.729,20.742,47.729z"></path></g></svg></g><path fill="white" fill-rule="nonzero" d="M6.02 23.13L6.02 23.13Q4.06 23.13 2.76 22.29Q1.46 21.45 0.78 19.96Q0.11 18.48 0 16.52L0 16.52L2.80 15.76Q2.88 16.97 3.18 18.09Q3.47 19.21 4.14 19.92Q4.82 20.64 6.02 20.64L6.02 20.64Q7.25 20.64 7.88 19.95Q8.51 19.26 8.51 17.98L8.51 17.98Q8.51 16.44 7.81 15.50Q7.11 14.56 6.05 13.61L6.05 13.61L2.24 10.25Q1.12 9.27 0.59 8.11Q0.06 6.94 0.06 5.24L0.06 5.24Q0.06 2.74 1.48 1.37Q2.91 0 5.38 0L5.38 0Q6.72 0 7.74 0.35Q8.76 0.70 9.45 1.43Q10.14 2.16 10.54 3.26Q10.95 4.37 11.09 5.85L11.09 5.85L8.40 6.58Q8.32 5.46 8.06 4.52Q7.81 3.58 7.18 3.01Q6.55 2.44 5.38 2.44L5.38 2.44Q4.20 2.44 3.54 3.07Q2.88 3.70 2.88 4.93L2.88 4.93Q2.88 5.96 3.23 6.64Q3.58 7.31 4.37 8.01L4.37 8.01L8.20 11.37Q9.49 12.49 10.47 14.04Q11.45 15.60 11.45 17.72L11.45 17.72Q11.45 19.40 10.75 20.62Q10.05 21.84 8.83 22.48Q7.62 23.13 6.02 23.13ZM19.32 23.16L19.32 23.16Q17.19 23.16 15.92 22.25Q14.64 21.34 14.07 19.60Q13.50 17.86 13.50 15.43L13.50 15.43L13.50 7.84Q13.50 5.35 14.01 3.60Q14.53 1.85 15.86 0.92Q17.19 0 19.57 0L19.57 0Q21.70 0 23.00 0.71Q24.30 1.43 24.89 2.90Q25.48 4.37 25.48 6.61L25.48 6.61L25.48 7.45L22.51 7.45L22.51 6.75Q22.51 5.26 22.32 4.33Q22.12 3.39 21.52 2.93Q20.92 2.46 19.63 2.46L19.63 2.46Q18.23 2.46 17.60 3.11Q16.97 3.75 16.81 4.86Q16.66 5.96 16.66 7.36L16.66 7.36L16.66 15.76Q16.66 17.39 16.90 18.48Q17.14 19.57 17.81 20.10Q18.48 20.64 19.71 20.64L19.71 20.64Q20.94 20.64 21.62 20.05Q22.29 19.46 22.54 18.31Q22.79 17.16 22.79 15.46L22.79 15.46L22.79 13.89L19.91 13.89L19.91 11.65L25.65 11.65L25.65 22.88L23.66 22.88L23.35 20.27Q22.90 21.53 21.95 22.34Q21 23.16 19.32 23.16ZM32.17 22.88L29.06 22.88L29.06 0.20L32.17 0.20L32.17 22.88ZM44.69 22.88L35.84 22.88L35.84 0.20L44.63 0.20L44.63 2.55L39.00 2.55L39.00 10.05L43.57 10.05L43.57 12.29L39.00 12.29L39.00 20.61L44.69 20.61L44.69 22.88ZM53.28 22.88L47.24 22.88L47.24 0.20L52.44 0.20Q53.98 0.20 55.12 0.53Q56.25 0.87 57.01 1.57Q57.76 2.27 58.13 3.35Q58.49 4.42 58.49 5.88L58.49 5.88Q58.49 7.28 58.14 8.30Q57.79 9.32 57.08 9.91Q56.36 10.50 55.24 10.67L55.24 10.67Q56.62 10.98 57.46 11.72Q58.30 12.46 58.70 13.62Q59.11 14.78 59.11 16.41L59.11 16.41Q59.11 17.86 58.77 19.07Q58.44 20.27 57.72 21.11Q57.01 21.95 55.90 22.41Q54.80 22.88 53.28 22.88L53.28 22.88ZM50.40 12.07L50.40 20.61L52.53 20.61Q54.66 20.61 55.37 19.61Q56.08 18.62 56.08 16.41L56.08 16.41Q56.08 14.98 55.71 14.01Q55.33 13.05 54.50 12.56Q53.68 12.07 52.28 12.07L52.28 12.07L50.40 12.07ZM50.40 2.55L50.40 9.66L52.28 9.66Q53.62 9.66 54.38 9.28Q55.13 8.90 55.44 8.06Q55.75 7.22 55.75 5.88L55.75 5.88Q55.75 4.31 55.27 3.61Q54.80 2.91 53.79 2.73Q52.78 2.55 51.16 2.55L51.16 2.55L50.40 2.55Z" transform="translate(22.476, 74.5)"></path></svg>