<?xml version="1.0" standalone="no"?>
<!DOCTYPE svg PUBLIC "-//W3C//DTD SVG 20010904//EN"
 "http://www.w3.org/TR/2001/REC-SVG-20010904/DTD/svg10.dtd">
<svg version="1.0" xmlns="http://www.w3.org/2000/svg"
 width="500.000000pt" height="500.000000pt" viewBox="0 0 500.000000 500.000000"
 preserveAspectRatio="xMidYMid meet">

<g transform="translate(0.000000,500.000000) scale(0.100000,-0.100000)"
fill="#000000" stroke="none">
<path d="M2290 4143 c-86 -11 -273 -58 -360 -90 -212 -79 -405 -200 -568 -357
-521 -502 -658 -1273 -340 -1911 340 -682 1087 -1044 1823 -884 562 122 1021
530 1208 1075 68 195 82 291 81 539 0 188 -3 234 -22 319 -131 587 -528 1040
-1080 1230 -182 63 -272 77 -502 81 -113 2 -221 1 -240 -2z m184 -129 c9 -3
16 -16 16 -28 0 -21 -1 -21 -18 2 -16 20 -20 22 -31 9 -13 -16 -10 -20 34 -42
29 -15 32 -61 5 -75 -32 -17 -70 -5 -70 23 1 20 2 21 14 5 7 -10 21 -18 30
-18 27 0 18 28 -14 45 -58 30 -27 102 34 79z m204 -27 c3 -16 1 -17 -16 -8
-29 16 -29 16 -35 -41 -5 -36 -3 -54 6 -60 7 -4 -4 -8 -27 -8 -29 0 -36 3 -28
13 5 6 13 34 17 61 l7 49 -31 -6 c-28 -6 -30 -5 -22 11 14 25 124 16 129 -11z
m-338 9 c0 -9 -8 -12 -25 -8 -22 4 -25 1 -25 -22 0 -28 17 -35 26 -11 10 24
24 7 24 -28 -1 -27 -2 -29 -11 -14 -14 25 -29 21 -29 -8 0 -28 26 -34 49 -12
10 10 12 8 9 -8 -2 -15 -14 -21 -53 -27 -51 -7 -69 -3 -47 11 19 11 5 111 -17
119 -12 5 -8 8 14 13 53 12 85 10 85 -5z m450 -5 c22 -6 23 -8 8 -17 -22 -12
-40 -98 -25 -113 8 -8 2 -11 -20 -11 -32 0 -53 15 -32 22 17 6 31 98 18 115
-13 15 7 16 51 4z m-610 -9 c0 -4 -4 -12 -8 -17 -14 -16 17 -105 36 -105 26 0
1 -17 -38 -25 -30 -7 -33 -6 -22 8 8 10 10 25 5 44 -7 26 -8 25 -18 -22 l-11
-50 -27 40 c-16 23 -27 33 -27 23 0 -28 12 -48 28 -48 20 0 5 -15 -23 -24 -18
-5 -20 -1 -21 32 0 55 -12 92 -30 92 -8 0 -12 5 -9 10 14 23 54 10 79 -26 l24
-36 7 51 c6 47 12 54 48 60 4 0 7 -3 7 -7z m750 -91 c0 -46 4 -71 13 -74 6 -2
9 -7 6 -11 -3 -3 -20 -1 -38 5 -22 8 -29 14 -21 19 17 11 5 40 -16 40 -11 0
-15 -6 -11 -20 4 -14 0 -20 -11 -20 -20 0 -54 20 -35 20 7 0 31 25 54 55 23
30 45 55 50 55 5 0 9 -31 9 -69z m144 15 c66 -27 67 -86 2 -86 -33 0 -53 -20
-40 -41 3 -5 -1 -9 -8 -9 -18 0 -57 29 -40 30 15 0 55 88 48 107 -7 16 -3 16
38 -1z m-1109 -31 c59 -58 -2 -149 -80 -119 -8 4 -23 20 -31 36 -38 73 53 142
111 83z m1303 -87 c4 -33 -27 -54 -58 -38 -15 8 -21 6 -30 -10 -6 -11 -8 -25
-5 -30 8 -13 2 -13 -30 2 -26 12 -34 28 -12 28 19 0 59 83 51 105 -7 16 -3 16
37 -6 33 -18 45 -31 47 -51z m-1481 7 c46 -33 37 -99 -20 -134 -40 -24 -48
-26 -41 -8 6 17 -54 110 -66 102 -6 -3 -10 -2 -10 3 0 10 79 52 100 52 9 0 25
-7 37 -15z m1603 -150 c15 -18 5 -35 -21 -35 -12 0 -19 7 -19 18 0 33 20 42
40 17z m-1802 -63 c3 -16 -2 -22 -16 -22 -24 0 -35 23 -19 39 16 16 31 8 35
-17z m2025 -51 c25 -29 25 -29 6 -47 -18 -17 -19 -16 -19 15 0 19 -6 34 -16
38 -22 8 -60 -15 -74 -45 -10 -22 -9 -28 6 -39 10 -7 26 -11 36 -7 23 7 24
-12 1 -20 -23 -9 -67 25 -71 56 -2 13 6 36 18 51 30 38 78 37 113 -2z m-823
-31 c0 -11 -7 -20 -15 -20 -12 0 -15 -16 -15 -80 l0 -80 53 0 53 0 314 -366
c173 -201 321 -374 329 -385 13 -18 11 -19 -40 -19 l-54 1 -280 329 c-154 181
-284 328 -289 326 -5 -1 -112 -175 -237 -387 -125 -211 -231 -383 -235 -383
-5 1 -208 43 -451 95 -299 62 -443 97 -443 105 0 7 105 163 233 346 l234 333
326 3 327 2 0 80 c0 64 -3 80 -15 80 -8 0 -15 9 -15 20 0 19 7 20 110 20 103
0 110 -1 110 -20z m-1419 -36 c12 -15 11 -16 -9 -10 -16 5 -24 3 -28 -9 -10
-24 2 -29 35 -15 63 26 104 -22 57 -68 -24 -25 -27 -25 -43 -9 -16 16 -16 17
9 17 29 0 46 16 31 31 -5 5 -22 4 -41 -3 -55 -21 -93 22 -56 63 21 23 28 24
45 3z m2344 -59 c14 -13 25 -36 25 -50 0 -14 -11 -37 -25 -50 -13 -14 -36 -25
-50 -25 -29 0 -75 40 -75 65 0 21 19 57 39 72 25 20 60 15 86 -12z m-2445 -55
c13 -9 13 -10 0 -10 -25 0 -41 -21 -29 -37 18 -21 41 -16 34 7 -8 25 3 25 35
0 l25 -20 -22 0 c-27 0 -30 -12 -8 -30 21 -18 48 5 39 34 -6 20 -5 20 11 5 16
-16 15 -19 -10 -58 -15 -22 -32 -41 -37 -41 -5 0 -7 4 -3 9 9 16 -81 72 -102
64 -17 -7 -17 -6 -2 17 9 14 21 35 28 48 13 24 19 26 41 12z m2534 -129 c-9
-20 -18 -42 -21 -49 -4 -10 0 -10 21 -1 16 8 26 20 26 33 1 21 1 21 15 2 17
-22 20 -50 5 -41 -5 3 -33 -6 -61 -20 -29 -14 -54 -23 -57 -20 -3 3 4 26 16
50 28 58 28 59 -8 40 -16 -9 -30 -23 -30 -33 0 -14 -4 -12 -20 8 -25 32 -25
43 -1 35 27 -8 101 31 101 53 1 15 2 15 15 -2 12 -16 12 -23 -1 -55z m-2602
-77 c56 -28 72 -21 61 26 -5 24 -5 24 13 8 17 -17 17 -19 -7 -69 -13 -29 -25
-46 -27 -38 -4 23 -97 70 -111 56 -8 -8 -11 -8 -11 1 0 19 24 65 28 53 2 -6
27 -23 54 -37z m2702 -57 c3 -13 18 -27 37 -34 17 -7 28 -17 24 -23 -3 -6 -11
-7 -17 -4 -6 4 -14 1 -18 -6 -4 -7 -19 -14 -33 -15 -14 -2 -34 -6 -45 -9 -17
-6 -19 -3 -15 14 5 21 -3 25 -31 14 -22 -8 -20 -19 6 -44 21 -19 21 -20 2 -20
-14 0 -24 11 -33 38 -8 20 -16 43 -19 50 -2 7 1 10 10 7 20 -8 114 29 111 43
-5 22 15 12 21 -11z m-2688 -99 c-8 -18 -17 -43 -21 -55 -7 -25 -25 -31 -25
-8 0 7 -6 18 -14 22 -8 4 -31 24 -53 43 l-38 35 80 5 c44 3 81 2 83 -2 2 -4
-3 -22 -12 -40z m1888 -272 l196 -228 -2 -326 -3 -325 -174 -74 c-95 -40 -175
-73 -177 -73 -2 0 -4 140 -4 310 0 241 -3 310 -12 310 -7 0 -86 -30 -175 -67
l-163 -67 -2 -319 -3 -319 -68 -31 -67 -30 -420 179 -420 178 0 313 0 313 23
-5 c180 -41 802 -165 811 -162 7 3 105 161 217 351 l203 346 22 -22 c12 -13
110 -126 218 -252z m848 197 c8 -10 18 -32 21 -49 5 -27 3 -33 -16 -38 -29 -7
-32 -1 -14 25 9 11 13 28 10 35 -8 21 -67 17 -94 -6 l-24 -20 30 -25 30 -25
-26 0 c-41 0 -55 66 -22 102 21 24 85 24 105 1z m-2772 -36 c0 -18 -28 -43
-58 -52 -12 -3 -20 -11 -17 -16 9 -13 43 -11 48 4 3 6 5 3 6 -8 0 -21 -17 -67
-18 -49 -1 13 -95 36 -116 28 -12 -5 -14 0 -9 27 13 66 44 90 73 55 10 -11 19
-12 42 -4 16 5 29 14 29 19 0 5 5 9 10 9 6 0 10 -6 10 -13z m2818 -150 c1 -23
4 -51 5 -62 1 -12 -5 -21 -16 -23 -16 -3 -17 -1 -8 17 7 13 8 22 1 26 -14 9
-100 -5 -100 -16 0 -5 -4 -9 -9 -9 -5 0 -11 16 -13 35 -4 32 6 49 14 25 5 -16
108 0 108 17 0 7 -7 16 -15 19 -20 8 -9 23 13 17 12 -3 18 -16 20 -46z m-2887
-35 c45 -37 21 -112 -41 -127 -39 -9 -80 27 -80 70 0 64 70 97 121 57z m2781
-100 c2 -5 30 -18 62 -29 33 -10 61 -24 63 -29 2 -6 -24 -19 -58 -29 -33 -10
-63 -25 -66 -32 -3 -7 -9 -10 -14 -7 -12 7 -11 64 1 64 6 0 10 -4 10 -10 0 -5
7 -7 15 -4 8 4 15 15 15 25 0 10 -7 19 -15 19 -8 0 -15 -4 -15 -10 0 -5 -4
-10 -10 -10 -5 0 -10 14 -10 30 0 28 14 41 22 22z m-2837 -92 c11 17 54 11 65
-9 5 -11 10 -39 9 -63 0 -24 -3 -37 -6 -30 -6 15 -123 17 -123 2 0 -5 -4 -10
-10 -10 -5 0 -10 20 -10 44 0 53 21 81 50 66 13 -7 21 -7 25 0z m2948 -76 c12
-4 13 -13 5 -47 -5 -23 -7 -49 -5 -59 3 -9 -2 -19 -10 -22 -28 -11 -33 -6 -17
19 15 23 15 24 -11 31 -14 3 -44 4 -66 1 -33 -4 -39 -3 -35 10 3 8 6 24 6 36
1 20 2 20 11 5 7 -14 23 -18 61 -18 49 0 50 1 44 25 -7 27 -6 28 17 19z
m-2863 -104 c0 -23 -3 -27 -20 -23 -15 4 -20 0 -20 -16 0 -12 6 -21 15 -21 8
0 15 5 15 11 0 5 5 7 10 4 6 -3 10 -18 10 -32 0 -19 -3 -23 -12 -15 -11 8 -85
25 -122 27 -5 0 -11 6 -14 13 -2 7 19 22 52 37 31 14 59 32 62 40 9 23 24 7
24 -25z m2730 -63 c0 -18 102 -39 112 -24 14 22 16 1 6 -46 -10 -48 -22 -56
-56 -38 -9 5 -26 12 -37 16 -19 6 -19 7 -2 16 25 14 21 29 -8 29 -30 0 -43
-24 -25 -45 10 -12 10 -15 -3 -15 -9 0 -18 3 -20 8 -8 11 15 112 24 112 5 0 9
-6 9 -13z m-2694 -117 c17 -55 17 -67 3 -53 -13 13 -108 -9 -120 -29 -5 -8
-11 -4 -18 15 -14 37 -14 40 3 34 15 -6 96 11 109 23 11 10 -3 40 -19 40 -8 0
-14 5 -14 11 0 6 10 9 21 7 16 -2 25 -15 35 -48z m2693 -135 c46 -23 54 -67
21 -105 -13 -15 -25 -20 -37 -15 -16 6 -14 9 10 21 40 22 33 54 -16 73 -34 13
-40 12 -55 -3 -14 -14 -15 -20 -4 -37 16 -26 8 -37 -13 -19 -21 17 -12 58 17
83 25 21 40 21 77 2z m-2608 -108 c5 -18 3 -27 -8 -32 -22 -8 -28 2 -14 19 15
17 7 36 -15 36 -9 0 -14 -10 -14 -29 0 -70 -80 -84 -92 -16 -2 12 3 21 13 23
13 2 15 -3 12 -23 -4 -18 -1 -25 11 -25 11 0 16 9 16 30 0 17 9 39 21 51 18
18 23 19 42 6 11 -7 24 -25 28 -40z m2546 -59 c46 -43 16 -121 -47 -121 -44 0
-84 44 -75 82 13 58 79 79 122 39z m-2482 -48 c26 -41 35 -74 14 -53 -8 8 -24
3 -60 -19 -27 -16 -47 -34 -43 -39 3 -5 2 -9 -3 -9 -14 0 -55 71 -49 86 8 22
23 17 22 -7 -1 -28 14 -33 39 -14 20 14 20 15 -2 21 -25 7 -22 18 9 35 17 9
19 8 14 -9 -9 -26 6 -35 28 -19 19 14 12 47 -10 47 -8 0 -14 5 -14 10 0 24 32
7 55 -30z m2361 -125 c19 -15 42 -24 49 -21 17 6 18 4 9 -18 -5 -12 -21 -16
-63 -16 l-56 -1 23 -19 c13 -10 30 -16 37 -13 22 8 18 -11 -5 -32 -18 -16 -20
-16 -20 -2 0 9 -20 31 -45 49 -24 18 -44 36 -45 41 0 4 25 7 57 7 56 0 56 0
37 21 -10 11 -26 18 -36 16 -23 -6 -23 11 0 36 17 19 17 19 20 -1 2 -11 19
-33 38 -47z m-2260 -22 c36 -39 43 -56 21 -47 -17 6 -92 -54 -91 -72 3 -24
-12 -15 -40 24 -34 49 -34 85 0 111 40 31 71 27 110 -16z m127 -174 c-15 -3
-46 -15 -68 -26 -62 -31 -71 -20 -35 43 16 29 30 61 30 71 0 12 15 2 50 -32
l51 -50 -28 -6z m1926 -26 c29 -38 48 -42 60 -11 7 19 8 20 15 3 3 -10 5 -18
4 -19 -2 -1 -22 -18 -45 -40 -33 -31 -44 -36 -59 -28 -17 9 -16 11 9 17 15 4
27 10 27 14 -1 14 -72 81 -80 76 -18 -11 -10 7 13 31 19 20 23 21 27 6 3 -9
16 -32 29 -49z m-1801 -44 c43 -31 54 -46 28 -36 -17 7 -90 -78 -81 -93 13
-21 -12 -8 -47 25 -50 45 -48 93 3 121 36 20 51 17 97 -17z m1697 -56 c16 -23
36 -40 43 -38 19 7 14 -9 -8 -22 -17 -11 -23 -8 -51 32 -33 46 -53 56 -62 31
-8 -20 36 -81 56 -80 23 2 21 -13 -2 -26 -28 -14 -27 -15 -61 35 -17 25 -38
45 -47 45 -14 0 -14 3 2 20 10 11 20 18 23 15 3 -3 12 4 20 16 21 30 52 20 87
-28z m-1590 -15 c27 -12 34 -28 12 -28 -15 0 -63 -79 -59 -97 4 -18 -9 -16
-38 7 -19 15 -21 20 -8 20 18 0 72 85 63 100 -8 13 -2 13 30 -2z m1415 -32 c0
-2 3 -13 6 -23 6 -15 4 -16 -7 -5 -20 19 -51 15 -47 -5 2 -12 14 -19 33 -21
39 -5 55 -19 55 -48 0 -29 -48 -54 -62 -32 -13 22 -9 29 11 19 20 -11 31 -5
31 16 0 8 -12 13 -34 13 -33 0 -66 21 -66 41 0 16 40 49 60 49 11 0 20 -2 20
-4z m-1314 -79 l10 -52 17 31 c12 23 13 34 4 43 -17 17 15 14 39 -4 15 -11 16
-14 3 -15 -23 0 -63 -88 -48 -106 13 -16 5 -18 -21 -4 -12 6 -21 26 -26 55 -3
25 -10 45 -15 45 -12 0 -22 -46 -14 -61 5 -8 1 -9 -16 -4 -31 9 -48 25 -27 25
9 0 28 24 44 54 16 30 31 53 34 50 3 -3 10 -29 16 -57z m181 -24 c51 -9 59
-26 40 -86 -13 -40 -14 -53 -4 -59 7 -5 1 -8 -15 -8 -32 0 -33 7 -13 73 12 41
12 49 0 53 -22 9 -33 -3 -47 -47 -10 -34 -9 -42 3 -50 11 -7 10 -9 -6 -9 -42
0 -46 13 -26 73 11 31 16 57 10 57 -5 0 -9 5 -9 11 0 7 7 8 18 4 9 -4 32 -9
49 -12z m930 -15 c33 -30 31 -80 -3 -107 -15 -12 -34 -21 -44 -21 -34 0 -70
39 -70 76 0 66 69 97 117 52z m-717 -35 c2 -2 -1 -7 -7 -11 -18 -11 -34 -95
-20 -104 6 -4 18 -2 25 5 12 9 14 8 11 -8 -5 -22 -3 -22 -76 -11 -42 7 -53 12
-53 28 0 17 1 17 24 2 25 -15 25 -15 31 23 4 21 9 46 12 56 2 9 0 17 -6 17 -6
0 -11 4 -11 10 0 9 58 3 70 -7z m532 8 c-11 -7 -12 -19 -2 -65 6 -31 17 -56
23 -56 7 0 6 -4 -3 -10 -23 -15 -86 -12 -100 5 -17 20 -3 54 26 61 20 5 23 11
18 28 -4 11 -11 23 -16 25 -16 6 14 21 42 21 18 0 21 -3 12 -9z m-442 -21 c5
0 17 -13 27 -30 9 -16 21 -30 25 -30 15 0 8 39 -9 49 -15 8 -11 10 20 11 32 0
38 -3 33 -17 -15 -56 -17 -106 -5 -114 9 -6 -3 -8 -35 -7 -57 3 -79 25 -58 58
10 17 9 25 -4 45 -9 14 -20 25 -25 25 -5 0 -9 5 -9 11 0 6 7 8 16 5 9 -3 20
-6 24 -6z m280 -22 c39 -42 16 -110 -41 -123 -37 -9 -82 31 -82 73 0 66 78 98
123 50z"/>
<path d="M2885 3901 c-3 -5 -1 -12 5 -16 5 -3 10 1 10 9 0 18 -6 21 -15 7z"/>
<path d="M3062 3865 c-10 -22 -9 -25 7 -25 21 0 31 17 23 38 -7 19 -18 14 -30
-13z"/>
<path d="M1882 3864 c-12 -22 -4 -59 18 -79 47 -43 83 24 39 71 -26 28 -44 30
-57 8z"/>
<path d="M3212 3799 c-16 -25 -15 -29 8 -29 13 0 20 7 20 19 0 28 -14 33 -28
10z"/>
<path d="M1727 3731 c29 -52 39 -57 57 -28 18 28 -12 71 -53 75 l-33 3 29 -50z"/>
<path d="M3643 3385 c-15 -11 -23 -26 -23 -46 0 -25 4 -29 28 -29 34 0 75 40
70 67 -4 24 -46 28 -75 8z"/>
<path d="M3872 3049 c-26 -10 -23 -24 8 -32 14 -3 23 0 27 9 8 22 -9 33 -35
23z"/>
<path d="M1125 2990 c3 -5 10 -10 16 -10 5 0 9 5 9 10 0 6 -7 10 -16 10 -8 0
-12 -4 -9 -10z"/>
<path d="M1163 2984 c-8 -22 15 -43 27 -24 5 8 10 21 10 28 0 17 -30 15 -37
-4z"/>
<path d="M1037 2843 c-13 -12 -7 -21 19 -27 32 -8 41 -1 24 19 -13 16 -32 20
-43 8z"/>
<path d="M1031 2667 c-32 -16 -36 -31 -15 -51 21 -22 83 -18 98 6 21 34 -41
67 -83 45z"/>
<path d="M3940 2540 c0 -5 5 -10 10 -10 6 0 10 5 10 10 0 6 -4 10 -10 10 -5 0
-10 -4 -10 -10z"/>
<path d="M1073 2473 c-24 -9 -14 -33 13 -33 18 0 25 5 22 17 -3 18 -16 24 -35
16z"/>
<path d="M1000 2455 c0 -9 9 -15 25 -15 18 0 23 4 19 15 -4 8 -15 15 -25 15
-10 0 -19 -7 -19 -15z"/>
<path d="M1060 2270 c0 -5 5 -10 10 -10 6 0 10 5 10 10 0 6 -4 10 -10 10 -5 0
-10 -4 -10 -10z"/>
<path d="M3920 2193 c0 -5 7 -17 15 -27 11 -15 18 -17 26 -9 16 16 3 43 -21
43 -11 0 -20 -3 -20 -7z"/>
<path d="M3711 1816 c-26 -31 35 -85 80 -71 12 4 19 16 19 30 0 44 -73 73 -99
41z"/>
<path d="M1344 1642 c-28 -18 -40 -82 -15 -82 17 1 84 68 77 78 -8 13 -45 16
-62 4z"/>
<path d="M1496 1515 c-6 -16 19 -39 33 -31 13 8 4 33 -14 40 -7 2 -16 -1 -19
-9z"/>
<path d="M1475 1470 c-3 -5 -1 -10 4 -10 6 0 11 5 11 10 0 6 -2 10 -4 10 -3 0
-8 -4 -11 -10z"/>
<path d="M1586 1378 c-19 -27 -20 -52 -3 -66 9 -8 21 -1 45 28 40 48 40 60 3
60 -20 0 -35 -8 -45 -22z"/>
<path d="M2917 1174 c-12 -13 -8 -59 9 -82 36 -52 84 1 53 57 -14 25 -48 39
-62 25z"/>
<path d="M2760 1066 c-11 -15 -11 -19 3 -33 22 -22 31 -11 20 22 -8 25 -10 26
-23 11z"/>
<path d="M2394 1035 c-3 -8 -3 -19 1 -25 11 -18 25 -11 25 15 0 27 -17 34 -26
10z"/>
<path d="M2576 1104 c-31 -30 -13 -104 25 -104 23 0 43 43 34 77 -8 33 -39 47
-59 27z"/>
</g>
</svg>
